<?xml version="1.0" encoding="utf-8"?>
<!-- Generator: Adobe Illustrator 18.1.1, SVG Export Plug-In . SVG Version: 6.00 Build 0)  -->
<svg version="1.1" id="Layer_1" xmlns="http://www.w3.org/2000/svg" xmlns:xlink="http://www.w3.org/1999/xlink" x="0px" y="0px"
	 viewBox="0 0 200 197.5" enable-background="new 0 0 200 197.5" xml:space="preserve">
<path fill="#54769D" d="M132.1,28.7c-1.8-4.2-4.3-7.9-7.5-11.1c-3.2-3.2-7-5.7-11.1-7.5c-4.3-1.8-8.9-2.7-13.6-2.7S90.5,8.2,86.2,10
	c-4.2,1.8-7.9,4.3-11.1,7.5c-3.2,3.2-5.7,7-7.5,11.1c-1.8,4.3-2.7,8.9-2.7,13.6c0,4.7,0.9,9.3,2.7,13.6c4.4,10.5,30,35.3,32,35.3
	c1,0,1.5-0.3,2-0.7c8.4-6.7,26.1-24.3,30.5-34.6c1.8-4.3,2.7-8.9,2.7-13.6C134.8,37.6,133.9,33,132.1,28.7L132.1,28.7z"/>
<path fill="#161717" d="M178.3,126.6v25.1h-6.2v-31l0.4-0.2c1.2-0.5,2.6-0.9,3.9-1.2c1.7-0.4,3.5-0.5,5.3-0.5c1.6,0,3.3,0.3,4.7,1.1
	c1.3,0.8,2.3,1.8,3.1,3.1c0.8,1.4,1.3,3.1,1.6,4.7c0.3,1.9,0.4,3.9,0.4,5.9v18h-6.2v-16.9c0-1.4,0-2.8-0.2-4.1
	c-0.1-0.9-0.3-1.8-0.7-2.6c-0.3-0.6-0.6-1-1.1-1.3c-0.6-0.3-1.3-0.4-1.9-0.4c-0.6,0-1.3,0.1-1.9,0.2
	C179,126.4,178.6,126.5,178.3,126.6L178.3,126.6z M124.5,165.4v17c0.3,0.1,0.6,0.1,0.9,0.2c0.6,0.1,1.3,0.1,2,0.1
	c1.7,0,2.9-0.9,3.8-2.4c1.2-2,1.5-4.7,1.5-7.1c0-2.3-0.2-4.9-1.2-6.9c-0.7-1.5-1.8-2.3-3.5-2.3c-0.7,0-1.4,0.2-2.1,0.5
	C125.4,164.7,124.9,165,124.5,165.4L124.5,165.4z M124.5,157.8c0.4-0.2,0.9-0.4,1.3-0.6c1-0.4,2-0.6,3-0.6c1.6,0,3,0.4,4.4,1.2
	s2.4,2.1,3.2,3.5c0.9,1.6,1.5,3.5,1.9,5.3c0.5,2.2,0.7,4.5,0.7,6.7c0,2.3-0.2,4.7-0.8,6.9c-0.5,1.9-1.2,3.7-2.3,5.3
	c-1,1.4-2.2,2.6-3.7,3.5c-1.5,0.8-3.2,1.2-4.9,1.2c-1.6,0-3.3-0.2-4.9-0.5c-1.3-0.3-2.6-0.7-3.9-1.2l-0.4-0.2v-36.6H114v-31l0.4-0.2
	c1.2-0.5,2.6-0.9,3.9-1.2c1.7-0.4,3.4-0.5,5.1-0.5c1.3,0,2.8,0.2,4,0.9c0.8,0.5,1.5,1.1,2.2,1.8c0.2-0.2,0.5-0.4,0.8-0.6
	c0.5-0.4,1.1-0.7,1.7-1c0.6-0.3,1.3-0.6,1.9-0.8c0.7-0.2,1.4-0.3,2.1-0.3c1.5,0,3.1,0.3,4.5,1.1c1.2,0.8,2.1,1.8,2.8,3.2
	c0.7,1.5,1.1,3.1,1.3,4.7c0.3,1.9,0.4,3.9,0.4,5.9v18h-6.2v-16.9c0-2-0.1-4.9-0.8-6.8c-0.5-1.3-1.4-1.8-2.6-1.8
	c-0.7,0-1.4,0.2-2,0.5c-0.4,0.2-0.8,0.5-1.2,0.8c0.2,0.9,0.3,1.9,0.4,2.8c0.1,1.2,0.1,2.4,0.1,3.6v17.7h-6.2v-16.9
	c0-2-0.1-4.9-0.8-6.8c-0.5-1.2-1.4-1.8-2.6-1.8c-0.6,0-1.2,0.1-1.7,0.2c-0.3,0.1-0.7,0.1-1,0.2v16.5l4.2-1V157.8z M106.9,182.4
	v-25.2h6.2v31.1l-0.4,0.1c-1.2,0.5-2.6,0.8-3.8,1.1c-1.7,0.4-3.5,0.6-5.2,0.6c-1.6,0-3.3-0.3-4.7-1.2c-1.3-0.8-2.3-1.8-3-3.2
	c-0.8-1.4-1.3-3.1-1.6-4.7c-0.3-1.9-0.5-3.9-0.5-5.9v-18h6.2v16.9c0,2,0.1,5,0.9,6.8c0.6,1.3,1.7,1.8,3,1.8c0.6,0,1.2,0,1.9-0.1
	C106.2,182.5,106.5,182.4,106.9,182.4L106.9,182.4z M89.9,190c-1.3,0-2.7-0.2-3.9-0.8c-1-0.4-1.9-1.1-2.6-2.1
	c-0.7-1-1.1-2.1-1.3-3.3c-0.3-1.4-0.4-2.8-0.4-4.2v-28.3c-0.4,0.1-0.8,0.3-1.1,0.4c-0.7,0.2-1.4,0.3-2.1,0.4
	c-0.8,0.1-1.5,0.2-2.3,0.2c-1.8,0-3.6-0.4-5.3-1.3c-1.5-0.9-2.7-2.1-3.7-3.6c-1-1.6-1.7-3.4-2.1-5.3c-0.5-2.2-0.7-4.4-0.7-6.6
	c0-2.5,0.2-5,0.9-7.3c0.5-1.9,1.3-3.7,2.4-5.3c0.9-1.3,2.1-2.5,3.4-3.3c1.2-0.7,2.6-1.1,4-1.1c3.2,0,5.7,1.4,7.5,4.2
	c2.2,3.4,2.6,8.2,2.6,12.2c0,0.4,0,0.9,0,1.3c0,0.5,0,0.9-0.1,1.4l0,0.6H70.8c0.2,1.7,0.6,3.4,1.6,4.7c1.1,1.4,2.7,1.8,4.3,1.8
	c1.1,0,2.1-0.1,3.2-0.4c2-0.6,6.1-2.3,8-3.1l0,36.9c0,0.7,0,1.4,0.1,2.1c0.1,0.4,0.2,0.9,0.4,1.3c0.2,0.3,0.4,0.5,0.8,0.7
	c0.4,0.2,1,0.4,1.5,0.4l0.6,0.1l-0.8,7.1L89.9,190z M61,173.3c0-2.2,0.2-4.4,0.8-6.6c0.5-1.9,1.2-3.7,2.2-5.4
	c0.9-1.5,2.1-2.7,3.6-3.6c1.5-0.9,3.1-1.3,4.8-1.3c2.2,0,4.2,0.6,6.1,1.7l0.4,0.2l-1.3,7.2l-0.7-0.4c-0.6-0.3-1.2-0.6-1.8-0.8
	c-0.7-0.2-1.4-0.3-2.2-0.3c-1.7,0-3,0.7-4,2.3c-1.2,2-1.4,4.8-1.4,7.1c0,2.3,0.3,4.9,1.4,7c1,1.8,2.5,2.4,4.4,2.4
	c0.8,0,1.6-0.1,2.4-0.3c0.7-0.2,1.4-0.5,2-0.8l0.8-0.5l0.9,7.3l-0.3,0.2c-0.8,0.5-1.8,0.9-2.7,1.2c-1.2,0.3-2.4,0.5-3.6,0.5
	c-1.8,0-3.5-0.4-5.1-1.3c-1.5-0.9-2.7-2.1-3.6-3.6c-1-1.6-1.7-3.5-2.1-5.3C61.2,177.8,61,175.6,61,173.3L61,173.3z M161.1,145.1
	v-6.9c-0.2-0.1-0.5-0.1-0.7-0.2c-0.5-0.1-1.1-0.2-1.6-0.2c-0.5,0-1.1,0.1-1.6,0.2c-0.5,0.1-0.9,0.3-1.3,0.6
	c-0.4,0.3-0.7,0.6-0.9,1.1c-0.3,0.6-0.3,1.2-0.3,1.9c0,1,0.1,2.3,0.9,3c0.7,0.7,1.7,0.8,2.6,0.8C159,145.3,160.1,145.3,161.1,145.1
	L161.1,145.1z M161.1,131.8v-0.3c0-0.8-0.1-1.5-0.2-2.2c-0.1-0.6-0.3-1.2-0.6-1.7c-0.3-0.5-0.7-0.9-1.1-1.1
	c-0.6-0.3-1.2-0.4-1.9-0.4c-1,0-2.1,0.1-3.1,0.3c-0.8,0.2-1.5,0.4-2.2,0.8l-0.8,0.4l-0.8-7.2l0.4-0.2c0.9-0.4,1.9-0.7,2.9-1
	c1.3-0.3,2.7-0.5,4-0.5c1.5,0,3.1,0.2,4.5,1c1.2,0.6,2.2,1.5,2.9,2.7c0.8,1.2,1.3,2.6,1.5,4.1c0.3,1.7,0.4,3.4,0.4,5.1v19.2
	l-0.4,0.1c-1.2,0.3-2.4,0.6-3.6,0.9c-1.8,0.4-3.6,0.5-5.4,0.5c-1.3,0-2.5-0.2-3.7-0.6c-1.1-0.4-2.1-1-3-1.9
	c-0.9-0.9-1.5-2.1-1.9-3.3c-0.5-1.5-0.7-3.3-0.7-4.9c0-1.6,0.2-3.3,0.8-4.8c0.5-1.2,1.2-2.3,2.1-3.2c0.9-0.8,2-1.4,3.1-1.8
	c1.2-0.4,2.4-0.5,3.6-0.5c0.6,0,1.2,0.1,1.8,0.2C160.2,131.6,160.7,131.7,161.1,131.8L161.1,131.8z M102.6,144.6v-17
	c-0.4-0.4-0.9-0.7-1.4-0.9c-0.7-0.3-1.4-0.5-2.1-0.5c-1.6,0-2.7,0.8-3.5,2.3c-1,2-1.2,4.7-1.2,6.9c0,2.3,0.3,5,1.5,7.1
	c0.9,1.5,2.1,2.4,3.8,2.4c0.6,0,1.3,0,2-0.1C102,144.7,102.3,144.7,102.6,144.6L102.6,144.6z M102.6,120v-14.2l6.2-1.5v46.2
	l-0.4,0.2c-1.2,0.5-2.6,0.9-3.9,1.2c-1.6,0.4-3.2,0.5-4.9,0.5c-1.7,0-3.4-0.4-4.9-1.2c-1.5-0.8-2.7-2-3.7-3.4
	c-1.1-1.6-1.8-3.4-2.3-5.3c-0.6-2.2-0.8-4.6-0.8-6.9c0-2.3,0.2-4.6,0.7-6.8c0.4-1.9,1-3.7,2-5.3c0.8-1.4,1.9-2.6,3.2-3.5
	c1.3-0.9,2.8-1.2,4.4-1.2c1,0,2.1,0.2,3,0.6C101.8,119.5,102.2,119.7,102.6,120L102.6,120z M78.9,131.8c0-0.7-0.1-1.4-0.3-2
	c-0.2-0.7-0.4-1.5-0.8-2.1c-0.3-0.5-0.7-1-1.2-1.3c-0.5-0.3-1-0.5-1.6-0.5c-0.6,0-1.2,0.1-1.7,0.5c-0.5,0.4-1,0.9-1.3,1.4
	c-0.4,0.7-0.7,1.4-0.9,2.1c-0.2,0.6-0.3,1.2-0.4,1.8H78.9z M55.3,131.8c0-0.7-0.1-1.4-0.3-2c-0.2-0.7-0.4-1.5-0.8-2.1
	c-0.3-0.5-0.7-1-1.2-1.3c-0.5-0.3-1-0.5-1.6-0.5c-0.6,0-1.2,0.1-1.7,0.5c-0.5,0.4-1,0.9-1.3,1.4c-0.4,0.7-0.7,1.4-0.9,2.1
	c-0.2,0.6-0.3,1.2-0.4,1.8H55.3z M47.2,138.4c0.2,1.7,0.6,3.4,1.6,4.7c1.1,1.4,2.7,1.8,4.3,1.8c1.1,0,2.1-0.1,3.2-0.4
	c0.8-0.2,1.6-0.5,2.3-0.9l0.8-0.5l0.8,7.2l-0.3,0.2c-0.4,0.3-0.8,0.5-1.2,0.7c-0.6,0.2-1.2,0.4-1.7,0.6c-0.7,0.2-1.4,0.3-2.1,0.4
	c-0.8,0.1-1.5,0.2-2.3,0.2c-1.8,0-3.6-0.4-5.3-1.3c-1.5-0.9-2.7-2.1-3.7-3.6c-1-1.6-1.7-3.4-2.1-5.3c-0.5-2.2-0.7-4.4-0.7-6.6
	c0-2.5,0.2-5,0.9-7.3c0.5-1.9,1.3-3.7,2.4-5.3c0.9-1.3,2.1-2.5,3.4-3.3c1.3-0.7,2.6-1.1,4-1.1c3.2,0,5.7,1.4,7.5,4.2
	c2.2,3.4,2.6,8.2,2.6,12.2c0,0.4,0,0.9,0,1.3c0,0.5,0,0.9-0.1,1.4l0,0.6H47.2z M31.4,126.7v25h-6.2v-30.5l0.3-0.2
	c1.2-0.6,2.5-1.1,3.7-1.5c1.6-0.5,3.3-0.7,5-0.7c0.4,0,0.8,0,1.2,0.1c0.5,0.1,0.9,0.1,1.4,0.2c0.4,0.1,0.9,0.2,1.3,0.4
	c0.4,0.1,0.7,0.2,1.1,0.4l0.4,0.2l-1.1,7.4l-0.7-0.3c-0.5-0.2-1.1-0.4-1.6-0.6c-0.8-0.2-1.6-0.3-2.4-0.3c-0.5,0-1.1,0.1-1.6,0.2
	C32,126.5,31.7,126.6,31.4,126.7L31.4,126.7z M14.8,119.4h7.9v7.3h-7.9v25H8.6v-33.8c0-3.3,0.5-7,2.3-9.7c1.7-2.6,4.2-3.7,7.1-3.7
	c1.1,0,2.2,0.1,3.3,0.5c0.7,0.2,1.4,0.5,2.1,0.8l0.4,0.2l-1.2,7.3l-0.8-0.5c-0.5-0.3-1-0.5-1.5-0.7c-0.6-0.2-1.2-0.3-1.8-0.3
	c-0.6,0-1.2,0.1-1.7,0.4c-0.5,0.3-0.8,0.7-1.1,1.2c-0.3,0.6-0.5,1.3-0.6,1.9c-0.1,0.9-0.2,1.8-0.2,2.6V119.4z"/>
<path fill="#54769D" d="M42.7,104.7h-2.8v3.5c0,1.1-0.1,2.1-1.7,2.1c-1.2,0-1.7-0.4-1.7-2.1V97.9c0-1.1,0.4-2,1.7-2
	c1.6,0,1.7,1.1,1.7,1.9v2.8h2.8v-2.3c0-2.5-0.9-4.5-4.3-4.5c-4.3,0-4.7,3-4.7,5.2v9.1c0,1.4,0.3,4.3,4.5,4.3c3.7,0,4.6-2.3,4.6-4.6
	V104.7z M54.4,112.2c-0.5-1.1-0.5-1.5-0.5-3.6v-2.4c0-2.2-0.4-3.2-2.4-3.3c1.3-0.1,2.5-0.2,2.5-3.2v-2.3c0-3.1-1.1-3.5-3.7-3.5h-4.5
	v18.2h2.8v-8.4h1.3c1.3,0,1.3,1.7,1.3,2.9v1.6c0,1.7,0.1,2.1,0.4,3.8H54.4z M48.5,96.2h1.8c1,0,1,0.7,1,1.8v1.8c0,1.1-0.2,2-1.4,2
	h-1.4V96.2z M64.8,94H62l-2.1,7.3L57.9,94h-2.8l3.2,10.6v7.6h3v-7.6L64.8,94z M66.1,94v18.2h2.7v-8.2h2.8c2.7,0,2.8-1,2.8-3.4v-3.9
	c0-1.8-0.6-2.7-2.8-2.7H66.1z M68.8,96.2h1.7c0.9,0,1,0.2,1,0.9v3.9c0,0.6-0.2,0.8-1,0.8h-1.7V96.2z M85,96.1V94h-9.3v2.1h3.2v16.1
	h2.8V96.1H85z M95.2,98.6c0-2.4-0.5-4.8-4.3-4.8c-4.3,0-4.5,3.1-4.5,4.7v9.5c0,3.4,1.8,4.2,4.2,4.2s4.6-0.7,4.6-4.2V98.6z
	 M92.5,108.2c0,1-0.1,2.2-1.7,2.2c-1.4,0-1.6-0.9-1.6-1.9V98.1c0-0.9,0-2.1,1.7-2.1c1.4,0,1.6,0.8,1.6,2.7V108.2z"/>
<path fill="#54769D" d="M125.3,112.5V94.3h-2.6c0,1.1,0.2,12.4,0.2,12.4l-3.4-12.4h-3v18.2h2.6c0,0-0.3-10.8-0.3-13.4l3.4,13.4
	H125.3z M135.9,112.5v-2.3h-4.1v-6h3.7v-2.3h-3.7v-5.3h4.1v-2.3H129v18.2H135.9z M151.6,94.3h-2.7l-1.3,14.1l-1.7-14.1h-2.5
	l-1.5,14.1l-1.3-14.1h-2.7l2.3,18.2h3.2l1.3-12.2l1.4,12.2h3.2L151.6,94.3z M153.4,105.9v3c0,1.1,0.1,2,0.9,2.9
	c0.5,0.5,1.4,1.1,3.1,1.1c4.1,0,4.1-3.5,4.1-4.5c0-1.4-0.6-2.9-1.8-4.5l-1.5-1.9c-1-1.3-1.8-2.4-1.8-4.2c0-0.9,0-1.9,1.4-1.9
	c1,0,1.1,0.9,1.1,1.3v3.1h2.5v-3.2c0-1.4-0.5-3.1-3.5-3.1c-3.1,0-4.2,1.8-4.2,3.8c0,2.2,0.9,3.5,1.7,4.6l1.1,1.5
	c1,1.4,2.3,2.7,2.3,4.8c0,1,0,2.3-1.3,2.3c-1.1,0-1.4-0.6-1.4-1.7v-3.3H153.4z"/>
<path fill="#54769D" d="M132.1,28.7c-1.8-4.2-4.3-7.9-7.5-11.1c-3.2-3.2-7-5.7-11.1-7.5c-4.3-1.8-8.9-2.7-13.6-2.7S90.5,8.2,86.2,10
	c-4.2,1.8-7.9,4.3-11.1,7.5c-3.2,3.2-5.7,7-7.5,11.1c-1.8,4.3-2.7,8.9-2.7,13.6c0,4.7,0.9,9.3,2.7,13.6c4.4,10.5,30,35.3,32,35.3
	c1,0,1.5-0.3,2-0.7c8.4-6.7,26.1-24.3,30.5-34.6c1.8-4.3,2.7-8.9,2.7-13.6C134.8,37.6,133.9,33,132.1,28.7L132.1,28.7z"/>
<g>
	<path fill="#305073" d="M133,31.1c0.1,0.4,0.3,0.8,0.4,1.2C133.2,31.9,133.1,31.5,133,31.1z"/>
	<path fill="#305073" d="M132.3,29.2c0.2,0.4,0.3,0.8,0.5,1.3C132.6,30,132.4,29.6,132.3,29.2z"/>
	<path fill="#305073" d="M133.4,41c0.5-0.1,0.9-0.2,1.4-0.3c-0.1-2.7-0.6-5.4-1.3-8c-0.3-0.2-0.5-0.3-0.6-0.4
		c-0.5-0.3-0.1-1.4-1-2.4c-2.6-1.4-6-2.3-11-2c0,0,1.4-0.6,3.7-1.2c1.4-0.5,1.9-2.3,1.3-3.5c-0.4-0.8-3.7-4.4-10.9-7.2
		c-19.9,13.7-31.4,7-31.4,7c8.1,1.1,18.2-2.6,20-13.3C92.4,21.4,79,17.2,79,17.2c4-0.1,9.6-0.8,10.7-5.2c-1.9,2-6,2.6-8.6,2
		c1.4-1.4,2.9-2.6,4.5-3.7c-3.9,1.8-7.5,4.2-10.6,7.2c-3.2,3.2-5.7,7-7.5,11.1c-1.8,4.3-2.7,8.9-2.7,13.6c0,4.7,0.9,9.3,2.7,13.6
		c4.4,10.5,30,35.3,32,35.3c1,0,1.5-0.3,2-0.7c5.6-4.5,15.4-13.8,22.6-22.6c-0.9,0.9-1.9,1.8-3,2.6c-1-5.4,1.6-9.6,6.2-13.8
		c0,0-3.8,2.2-10.2,3.9c-6.8-2.7-13.1-6.7-6.3-12.6c3.6-3.1,10.3-1.4,16-0.8c0,2.2-0.4,5.7-0.9,6.5c0,0,3.3-1.2,5-6.4
		c1.3-0.1,2.5-0.4,3.5-1c0.2-1.4,0.2-2.7,0.2-4.1c0-0.4,0-0.8,0-1.1C133.9,41.1,133.4,41,133.4,41z M114.1,72.8
		c-0.1-3.9,2.2-6,2.2-6c-0.1,1.6,0.4,3,1,4.2l0.9,1.5c-0.6,0.4-1.2,0.7-1.7,1c-0.8,0.2-1.6,0.5-2.4,0.6l-0.1-1
		C114.1,73.1,114.1,73,114.1,72.8L114.1,72.8z M110.1,75c-1.3,0.2-2.7,0.2-4.1,0.2c-4.8,0-9.5-0.9-13.9-2.8
		c-4.3-1.8-8.1-4.4-11.3-7.6c-1.2-1.2-2.4-2.5-3.4-3.9c-0.6-2-1-3.9-1-5.6c0-4.2,1.8-7.8,6.9-8.2c-3,6.6-2,15.1,2.7,19.5v0
		c0,0,0,0,0,0c0-0.1-0.1-0.2-0.1-0.3c-0.1-0.5-0.3-1-0.4-1.5c0-0.1-0.1-0.2-0.1-0.3C84,58.2,84.2,47.6,93,40.8c0,0-0.8,2.5-1,6.2
		c-0.3,5.4,0.8,13.4,7.9,20.1c-0.6-5.7,1.6-9.8,1.6-9.8c0.2,4.7,1.8,8.4,3.9,11.3l0,0c0,0,0,0.1,0.1,0.1L110.1,75z M116.1,29.5
		l-5.5-4.9C111.6,24.8,118.5,24.7,116.1,29.5z"/>
</g>
<g>
	<g>
		<path fill="#FFFFFF" d="M115.3,47.6c-0.7-1.2-1.7-2.2-2.9-2.9c-0.9-0.5-2.1-1-3.7-1.4c1.5-0.5,2.7-1.2,3.6-1.9
			c0.9-0.8,1.6-1.7,2.1-2.7c0.5-1,0.8-2.1,0.8-3.2c0-1.6-0.5-3-1.4-4.3c-0.9-1.3-2.2-2.3-4-3c-0.7-0.3-1.4-0.5-2.3-0.6v-6.1h-5.8
			v5.7h-3.8v-5.7h-5.8v5.7h-8.9v4.8h1.3c0.9,0,1.5,0.1,1.8,0.2c0.3,0.2,0.5,0.4,0.7,0.7c0.1,0.3,0.2,0.9,0.2,2v6.5v12.8
			c0,1-0.1,1.6-0.2,1.9c-0.1,0.3-0.4,0.5-0.7,0.7c-0.3,0.2-0.9,0.2-1.8,0.2h-1.3v4.8h8.9v5.7h0.7h5.1v-5.7h3.8v5.7h5.8V61
			c1-0.2,1.8-0.4,2.6-0.7c2-0.8,3.6-2,4.7-3.5c1.1-1.5,1.7-3.2,1.7-5.1C116.4,50.2,116.1,48.8,115.3,47.6L115.3,47.6z M95.8,32.6
			h3.8c2.2,0,3.7,0.1,4.6,0.4c0.8,0.3,1.5,0.7,2,1.4c0.5,0.6,0.7,1.4,0.7,2.3c0,0.9-0.2,1.6-0.7,2.3c-0.5,0.7-1.2,1.2-2.2,1.5
			c-0.9,0.3-2.4,0.5-4.4,0.5h-3.8L95.8,32.6z M106.5,53.9c-0.7,0.9-1.5,1.4-2.5,1.7c-1,0.3-2.2,0.4-3.6,0.4h-2.5
			c-0.8,0-1.4,0-1.5-0.1c-0.2-0.1-0.3-0.2-0.4-0.5c-0.1-0.2-0.1-0.8-0.1-1.9v-7.5h4.5c2,0,3.4,0.2,4.4,0.6c1,0.4,1.7,0.9,2.1,1.6
			c0.5,0.7,0.7,1.6,0.7,2.6C107.5,52,107.2,53,106.5,53.9L106.5,53.9z"/>
	</g>
</g>
</svg>
