<?xml version="1.0" encoding="UTF-8"?>
<svg width="33px" height="31px" viewBox="0 0 33 31" version="1.1" xmlns="http://www.w3.org/2000/svg" xmlns:xlink="http://www.w3.org/1999/xlink">
    <!-- Generator: Sketch 46.2 (44496) - http://www.bohemiancoding.com/sketch -->
    <title>Blue Logo Block V 1 Outlines</title>
    <desc>Created with Sketch.</desc>
    <defs></defs>
    <g id="Page-1" stroke="none" stroke-width="1" fill="none" fill-rule="evenodd">
        <g id="White-BG-Outlines" transform="translate(-82.000000, -85.000000)">
            <g id="Blue-Logo-Block-V-1-Outlines" transform="translate(82.000000, 85.000000)">
                <path d="M2.00390625,25.2353516 L2.00390625,29 L1.41796875,29 L1.41796875,25.2353516 L0.052734375,25.2353516 L0.052734375,24.7080078 L3.43066406,24.7080078 L3.43066406,25.2353516 L2.00390625,25.2353516 Z M4.92480469,26.3984375 C4.80371033,26.3144527 4.68164124,26.2724609 4.55859375,26.2724609 C4.36132714,26.2724609 4.18896558,26.3632803 4.04150391,26.5449219 C3.89404223,26.7265634 3.8203125,26.9453112 3.8203125,27.2011719 L3.8203125,29 L3.26367188,29 L3.26367188,25.8623047 L3.8203125,25.8623047 L3.8203125,26.3632812 C4.02343852,25.9902325 4.32519331,25.8037109 4.72558594,25.8037109 C4.82519581,25.8037109 4.96874906,25.8212889 5.15625,25.8564453 L4.92480469,26.3984375 Z M7.32421875,28.6396484 C7.10156139,28.9189467 6.76074448,29.0585938 6.30175781,29.0585938 C6.05566283,29.0585938 5.84228606,28.9692392 5.66162109,28.7905273 C5.48095613,28.6118155 5.390625,28.3896498 5.390625,28.1240234 C5.390625,27.8056625 5.52978376,27.5366222 5.80810547,27.3168945 C6.08642717,27.0971669 6.44140409,26.9873047 6.87304688,26.9873047 C6.99023496,26.9873047 7.12304613,27.0126951 7.27148438,27.0634766 C7.27148438,26.5556615 7.04492414,26.3017578 6.59179688,26.3017578 C6.24413889,26.3017578 5.97656344,26.3955069 5.7890625,26.5830078 L5.5546875,26.1171875 C5.66015678,26.0312496 5.80615141,25.9575198 5.99267578,25.8959961 C6.17920015,25.8344723 6.35742103,25.8037109 6.52734375,25.8037109 C6.98242415,25.8037109 7.31298725,25.9072255 7.51904297,26.1142578 C7.72509869,26.3212901 7.828125,26.6503884 7.828125,27.1015625 L7.828125,28.2265625 C7.828125,28.5019545 7.91015543,28.6855464 8.07421875,28.7773438 L8.07421875,29.0556641 C7.84765512,29.0556641 7.67822322,29.0234378 7.56591797,28.9589844 C7.45361272,28.8945309 7.37304712,28.7880867 7.32421875,28.6396484 Z M7.27148438,27.4589844 C7.09570225,27.4199217 6.9726566,27.4003906 6.90234375,27.4003906 C6.62109234,27.4003906 6.39160245,27.4726555 6.21386719,27.6171875 C6.03613192,27.7617195 5.94726562,27.9326162 5.94726562,28.1298828 C5.94726562,28.4560563 6.13964651,28.6191406 6.52441406,28.6191406 C6.80566547,28.6191406 7.05468642,28.4853529 7.27148438,28.2177734 L7.27148438,27.4589844 Z M10.6933594,28.9970703 L10.6933594,28.765625 C10.499999,28.9589853 10.2187518,29.0556641 9.84960938,29.0556641 C9.45702929,29.0556641 9.1386731,28.9150405 8.89453125,28.6337891 C8.6503894,28.3525377 8.52832031,27.9775414 8.52832031,27.5087891 C8.52832031,27.0380836 8.66894391,26.6362321 8.95019531,26.3032227 C9.23144672,25.9702132 9.56640431,25.8037109 9.95507812,25.8037109 C10.2792985,25.8037109 10.5253898,25.8798821 10.6933594,26.0322266 L10.6933594,24.5761719 L11.25,24.5761719 L11.25,28.9970703 L10.6933594,28.9970703 Z M10.6933594,26.5888672 C10.5527337,26.3779286 10.3603528,26.2724609 10.1162109,26.2724609 C9.81738132,26.2724609 9.57568452,26.3837879 9.39111328,26.6064453 C9.20654205,26.8291027 9.11425781,27.112303 9.11425781,27.4560547 C9.11425781,28.2119178 9.45800437,28.5898438 10.1455078,28.5898438 C10.2333989,28.5898438 10.3388666,28.562012 10.4619141,28.5063477 C10.5849616,28.4506833 10.6621092,28.3916019 10.6933594,28.3291016 L10.6933594,26.5888672 Z M12.6210938,24.6757812 C12.7167974,24.6757812 12.7983395,24.7094723 12.8657227,24.7768555 C12.9331058,24.8442386 12.9667969,24.9248042 12.9667969,25.0185547 C12.9667969,25.1142583 12.9331058,25.1958004 12.8657227,25.2631836 C12.7983395,25.3305667 12.7167974,25.3642578 12.6210938,25.3642578 C12.5273433,25.3642578 12.4467777,25.3305667 12.3793945,25.2631836 C12.3120114,25.1958004 12.2783203,25.1142583 12.2783203,25.0185547 C12.2783203,24.9228511 12.3115231,24.8417972 12.3779297,24.7753906 C12.4443363,24.708984 12.5253901,24.6757812 12.6210938,24.6757812 Z M12.3164062,29 L12.3164062,26.3310547 L11.8857422,26.3310547 L11.8857422,25.8623047 L12.8730469,25.8623047 L12.8730469,29 L12.3164062,29 Z M15.6884766,29 L15.6884766,27.1748047 C15.6884766,26.8408186 15.6381841,26.6069343 15.5375977,26.4731445 C15.4370112,26.3393548 15.2685559,26.2724609 15.0322266,26.2724609 C14.9052728,26.2724609 14.7724616,26.3105465 14.6337891,26.3867188 C14.4951165,26.462891 14.3886722,26.5566401 14.3144531,26.6679688 L14.3144531,29 L13.7578125,29 L13.7578125,25.8623047 L14.1386719,25.8623047 L14.3144531,26.2666016 C14.4980478,25.9580063 14.7978495,25.8037109 15.2138672,25.8037109 C15.9013706,25.8037109 16.2451172,26.2216755 16.2451172,27.0576172 L16.2451172,29 L15.6884766,29 Z M16.921875,29.8583984 L17.2236328,29.4130859 C17.5478532,29.6298839 17.8466783,29.7382812 18.1201172,29.7382812 C18.3720716,29.7382812 18.5708001,29.6948247 18.7163086,29.6079102 C18.8618171,29.5209957 18.9345703,29.4130866 18.9345703,29.2841797 C18.9345703,29.0302722 18.7509784,28.9033203 18.3837891,28.9033203 C18.3212888,28.9033203 18.2080086,28.9189452 18.0439453,28.9501953 C17.879882,28.9814455 17.7519536,28.9970703 17.6601562,28.9970703 C17.2148415,28.9970703 16.9921875,28.8291032 16.9921875,28.4931641 C16.9921875,28.3896479 17.0444331,28.2958989 17.1489258,28.2119141 C17.2534185,28.1279293 17.3828117,28.067383 17.5371094,28.0302734 C17.0957009,27.8232412 16.875,27.4638697 16.875,26.9521484 C16.875,26.6240218 16.9892567,26.350587 17.2177734,26.1318359 C17.4462902,25.9130848 17.7285139,25.8037109 18.0644531,25.8037109 C18.3730484,25.8037109 18.6142569,25.8671869 18.7880859,25.9941406 L19.0664062,25.6601562 L19.4296875,26.0029297 L19.0957031,26.2548828 C19.238282,26.4404306 19.3095703,26.6826157 19.3095703,26.9814453 C19.3095703,27.2978531 19.2109385,27.5634755 19.0136719,27.7783203 C18.8164053,27.9931651 18.5576188,28.1162108 18.2373047,28.1474609 L17.7773438,28.1943359 C17.722656,28.2001953 17.6494145,28.2211912 17.5576172,28.2573242 C17.4658199,28.2934572 17.4199219,28.34082 17.4199219,28.3994141 C17.4199219,28.4794926 17.515624,28.5195312 17.7070312,28.5195312 C17.791016,28.5195312 17.9218741,28.5043947 18.0996094,28.4741211 C18.2773446,28.4438475 18.4091793,28.4287109 18.4951172,28.4287109 C18.8037125,28.4287109 19.0444327,28.5024407 19.2172852,28.6499023 C19.3901376,28.797364 19.4765625,29.0019518 19.4765625,29.2636719 C19.4765625,29.5527358 19.3471693,29.7861319 19.0883789,29.9638672 C18.8295885,30.1416025 18.5019551,30.2304688 18.1054688,30.2304688 C17.9023427,30.2304688 17.6884777,30.1943363 17.4638672,30.1220703 C17.2392567,30.0498043 17.0585944,29.9619146 16.921875,29.8583984 Z M18.1025391,26.2519531 C17.9091787,26.2519531 17.7514655,26.3203118 17.6293945,26.4570312 C17.5073236,26.5937507 17.4462891,26.7597646 17.4462891,26.9550781 C17.4462891,27.1738292 17.5053705,27.3549798 17.6235352,27.4985352 C17.7416998,27.6420906 17.9013662,27.7138672 18.1025391,27.7138672 C18.2998057,27.7138672 18.454101,27.6440437 18.5654297,27.5043945 C18.6767584,27.3647454 18.7324219,27.1816418 18.7324219,26.9550781 C18.7324219,26.7597646 18.6723639,26.5937507 18.5522461,26.4570312 C18.4321283,26.3203118 18.2822275,26.2519531 18.1025391,26.2519531 Z M21.5859375,29.0585938 L21.2900391,29.0585938 L19.6904297,24.7080078 L20.3408203,24.7080078 L21.4453125,27.8691406 L22.5087891,24.7080078 L23.1386719,24.7080078 L21.5859375,29.0585938 Z M24.0380859,24.6757812 C24.1337895,24.6757812 24.2153317,24.7094723 24.2827148,24.7768555 C24.350098,24.8442386 24.3837891,24.9248042 24.3837891,25.0185547 C24.3837891,25.1142583 24.350098,25.1958004 24.2827148,25.2631836 C24.2153317,25.3305667 24.1337895,25.3642578 24.0380859,25.3642578 C23.9443355,25.3642578 23.8637699,25.3305667 23.7963867,25.2631836 C23.7290036,25.1958004 23.6953125,25.1142583 23.6953125,25.0185547 C23.6953125,24.9228511 23.7285153,24.8417972 23.7949219,24.7753906 C23.8613285,24.708984 23.9423823,24.6757812 24.0380859,24.6757812 Z M23.7333984,29 L23.7333984,26.3310547 L23.3027344,26.3310547 L23.3027344,25.8623047 L24.2900391,25.8623047 L24.2900391,29 L23.7333984,29 Z M27.8173828,27.4853516 L25.5556641,27.4853516 C25.5556641,27.8525409 25.656249,28.1347646 25.8574219,28.3320312 C26.0351571,28.5039071 26.2636705,28.5898438 26.5429688,28.5898438 C26.8613297,28.5898438 27.1269521,28.4970712 27.3398438,28.3115234 L27.5742188,28.7128906 C27.4882808,28.7988286 27.3564462,28.8730466 27.1787109,28.9355469 C26.9560536,29.0175785 26.7080092,29.0585938 26.4345703,29.0585938 C26.0400371,29.0585938 25.7050795,28.924806 25.4296875,28.6572266 C25.1230453,28.3623032 24.9697266,27.9658228 24.9697266,27.4677734 C24.9697266,26.9501927 25.1269516,26.5351578 25.4414062,26.2226562 C25.7226577,25.943358 26.0556621,25.8037109 26.4404297,25.8037109 C26.8876975,25.8037109 27.23828,25.9296862 27.4921875,26.1816406 C27.7382825,26.4238293 27.8613281,26.7451152 27.8613281,27.1455078 C27.8613281,27.2685553 27.8466798,27.3818354 27.8173828,27.4853516 Z M26.4667969,26.2724609 C26.2187488,26.2724609 26.010743,26.3525383 25.8427734,26.5126953 C25.6826164,26.6650398 25.591797,26.8544911 25.5703125,27.0810547 L27.3076172,27.0810547 C27.3076172,26.8564442 27.2373054,26.6689461 27.0966797,26.5185547 C26.942382,26.3544914 26.7324232,26.2724609 26.4667969,26.2724609 Z M31.3476562,29.0585938 L31.2011719,29.0585938 L30.28125,26.9228516 L29.3642578,29.0585938 L29.2177734,29.0585938 L28.0957031,25.8535156 L28.6904297,25.8535156 L29.3613281,27.9130859 L30.1962891,25.8535156 L30.3427734,25.8535156 L31.2041016,27.9130859 L31.9248047,25.8535156 L32.4726562,25.8535156 L31.3476562,29.0585938 Z" id="TradingView" fill="#363C4E"></path>
                <g id="Blue-Cloud" fill="#3BB3E4">
                    <g id="Cloud">
                        <path d="M29.0317379,7.38247569 C29.5989701,8.20545373 29.9478191,9.19057395 29.9946037,10.2541551 C31.7452105,10.8703835 33,12.5386559 33,14.5 C33,16.9852814 30.9852814,19 28.5,19 L6,19 C4.35376245,19 2.86237543,18.3370061 1.7782826,17.2634619 L11.3238065,9.70658883 C11.6743726,9.89384408 12.0747893,10 12.5,10 C12.8814296,10 13.242908,9.91457903 13.5663489,9.76182351 L18.1165746,13.743271 C18.0408521,13.9819846 18,14.2362216 18,14.5 C18,15.8807119 19.1192881,17 20.5,17 C21.8807119,17 23,15.8807119 23,14.5 C23,14.1775704 22.9389612,13.8693971 22.8278086,13.586405 L29.0317379,7.38247569 Z M27.6175243,5.96826213 L21.413595,12.1721914 C21.1306029,12.0610388 20.8224296,12 20.5,12 C20.1185704,12 19.757092,12.085421 19.4336511,12.2381765 L14.8834254,8.25672903 C14.9591479,8.01801537 15,7.76377844 15,7.5 C15,6.11928813 13.8807119,5 12.5,5 C11.1192881,5 10,6.11928813 10,7.5 C10,7.72070771 10.0286003,7.93473545 10.082297,8.13857926 L0.609477485,15.6378947 C0.219150823,14.8417652 0,13.9464753 0,13 C0,9.6862915 2.6862915,7 6,7 C6.02064279,7 6.04126123,7.00010425 6.06185483,7.00031224 C6.55381427,3.0538495 9.92027475,0 14,0 C17.6455896,0 20.7216389,2.43849213 21.6860468,5.77337533 C22.5093073,5.28219823 23.4716982,5 24.5,5 C25.6574983,5 26.7314831,5.35756404 27.6175243,5.96826213 Z" id="Combined-Shape"></path>
                    </g>
                </g>
            </g>
        </g>
    </g>
</svg>